<svg width="80" height="80" viewBox="0 0 80 80" fill="none" xmlns="http://www.w3.org/2000/svg">
<g clip-path="url(#clip0_425_22427)">
<g filter="url(#filter0_ii_425_22427)">
<path d="M68.2834 11.7183C61.4667 4.9004 52.4173 0.774223 42.8006 0.0991855C33.1838 -0.575852 23.6468 2.24568 15.9448 8.04451C15.2722 8.57105 14.8333 9.34072 14.7225 10.1878C14.6117 11.0348 14.838 11.8915 15.3526 12.5734C15.8672 13.2552 16.629 13.7076 17.4738 13.8332C18.3187 13.9588 19.1791 13.7476 19.8697 13.2449C23.0917 10.8058 26.7324 8.97641 30.6123 7.84707C37.8716 5.72897 45.634 6.12985 52.6367 8.98449C59.6393 11.8391 65.4702 16.9796 69.1807 23.5696C72.8913 30.1596 74.2632 37.8114 73.0733 45.2803C71.8833 52.7491 68.2016 59.5956 62.627 64.7058L58.1356 58.5815C63.1573 53.6288 65.9558 47.076 65.9558 40.0097C65.9543 34.2979 64.0691 28.7462 60.5924 24.2149C57.1157 19.6836 52.2416 16.4258 46.7256 14.9465C41.2096 13.4671 35.3597 13.8488 30.0826 16.0323C24.8055 18.2159 20.3959 22.0794 17.5373 27.0241C14.6787 31.9687 13.5306 37.7183 14.2711 43.3818C15.0116 49.0453 17.5993 54.3064 21.633 58.3496C25.6668 62.3929 30.9214 64.9924 36.5825 65.7455C42.2435 66.4985 47.9948 65.3629 52.945 62.5147L59.4427 71.3619C59.9606 72.051 60.731 72.506 61.5844 72.627C62.4378 72.748 63.3043 72.525 63.9933 72.0071C68.5789 68.5688 72.3722 64.185 75.1162 59.1526C77.8602 54.1203 79.4908 48.557 79.8976 42.8394C80.3044 37.1219 79.4779 31.3836 77.4741 26.0134C75.4703 20.6432 72.336 15.7663 68.2834 11.7132V11.7183ZM53.7398 53.7527C51.2276 56.2603 48.0779 58.0335 44.6312 58.8807C41.1845 59.7279 37.5718 59.6168 34.1836 58.5595C33.8933 58.4679 29.602 57.0768 26.2564 53.7527C19.6762 47.2206 20.7652 37.2159 20.9045 36.0958C20.9148 36.039 20.9316 35.9564 20.9522 35.8558C21.718 32.1689 23.5646 28.7937 26.2564 26.1608C29.9325 22.5763 34.8634 20.57 39.9975 20.57C45.1315 20.57 50.0624 22.5763 53.7385 26.1608C56.5587 28.9189 58.4477 32.4886 59.142 36.372C59.142 36.372 59.1536 36.492 59.1691 36.7139C59.2853 38.2495 59.5781 44.6384 57.0931 49.253C56.1973 50.9062 55.0679 52.4217 53.7398 53.7527Z" fill="url(#paint0_linear_425_22427)"/>
<path d="M13.0429 14.827C12.3635 14.2961 11.501 14.0568 10.6452 14.1619C9.78937 14.2669 9.0103 14.7076 8.47935 15.3871C4.70396 20.2041 2.08714 25.8253 0.831345 31.8156C-0.424454 37.806 -0.285576 44.005 1.23724 49.9331C1.4579 50.7632 1.99701 51.4728 2.73755 51.9078C3.4781 52.3428 4.3603 52.4682 5.19268 52.2566C6.02507 52.0451 6.74045 51.5138 7.18355 50.778C7.62665 50.0422 7.76171 49.1613 7.55941 48.3265C5.9468 41.978 6.21578 35.2974 8.33355 29.0991C9.53901 25.5912 11.3203 22.3086 13.6042 19.3861C14.1336 18.7068 14.3718 17.8452 14.2666 16.9904C14.1614 16.1356 13.7213 15.3576 13.0429 14.827Z" fill="url(#paint1_linear_425_22427)"/>
<path d="M22.356 68.4765C17.4946 65.4581 13.4832 61.2494 10.7013 56.2484C10.2821 55.4946 9.58066 54.9383 8.75132 54.7017C7.92198 54.4651 7.03265 54.5678 6.27897 54.987C5.52529 55.4063 4.969 56.1078 4.73248 56.9372C4.49596 57.7667 4.59858 58.6562 5.01776 59.41C8.3329 65.379 13.1156 70.4036 18.9136 74.0086C19.2769 74.2424 19.683 74.4017 20.1084 74.4771C20.5338 74.5525 20.9699 74.5425 21.3914 74.4477C21.8129 74.353 22.2113 74.1753 22.5635 73.9251C22.9157 73.6749 23.2146 73.3572 23.4429 72.9903C23.6711 72.6235 23.8242 72.215 23.8931 71.7884C23.962 71.3619 23.9454 70.9259 23.8442 70.5059C23.7431 70.0858 23.5594 69.6901 23.3039 69.3417C23.0484 68.9933 22.7262 68.6992 22.356 68.4765Z" fill="url(#paint2_linear_425_22427)"/>
<path d="M39.4722 73.4988C37.8941 73.4748 36.3196 73.3402 34.7603 73.0962C33.2073 72.8534 31.6737 72.5002 30.1709 72.0394C29.7625 71.9154 29.3336 71.8731 28.9089 71.9149C28.4841 71.9567 28.0717 72.0818 27.6953 72.283C27.3188 72.4842 26.9857 72.7575 26.7149 73.0875C26.4441 73.4174 26.2409 73.7975 26.117 74.206C25.993 74.6145 25.9508 75.0434 25.9925 75.4682C26.0343 75.8931 26.1594 76.3055 26.3605 76.682C26.5617 77.0585 26.835 77.3917 27.1649 77.6625C27.4948 77.9334 27.8749 78.1366 28.2833 78.2605C30.0791 78.8095 31.9116 79.2308 33.7668 79.5213C35.6298 79.8121 37.5108 79.9721 39.3961 80C39.8229 80.005 40.2466 79.9259 40.6428 79.7671C41.039 79.6084 41.4001 79.3732 41.7055 79.0749C42.0108 78.7766 42.2544 78.421 42.4223 78.0286C42.5903 77.6361 42.6793 77.2144 42.6843 76.7875C42.6893 76.3606 42.6102 75.9369 42.4515 75.5407C42.2927 75.1444 42.0575 74.7832 41.7593 74.4778C41.461 74.1725 41.1055 73.9288 40.7131 73.7608C40.3207 73.5929 39.8991 73.5038 39.4722 73.4988Z" fill="url(#paint3_linear_425_22427)"/>
<path d="M52.1772 71.2122C51.5914 71.4419 51.0018 71.6535 50.4083 71.8471C49.6019 72.1052 48.8135 72.3297 48.0058 72.5323C47.1675 72.7419 46.4467 73.276 46.0021 74.0172C45.5575 74.7583 45.4254 75.6457 45.635 76.4842C45.8446 77.3227 46.3787 78.0436 47.1197 78.4883C47.8607 78.933 48.748 79.065 49.5864 78.8554C50.5257 78.6205 51.4946 78.3457 52.4249 78.0437C53.1474 77.8076 53.8571 77.5521 54.5512 77.2824C55.3249 76.9466 55.9382 76.3238 56.2622 75.545C56.5861 74.7663 56.5955 73.8922 56.2884 73.1066C55.9812 72.3211 55.3815 71.6853 54.6152 71.3329C53.8489 70.9806 52.9759 70.9391 52.1798 71.2174L52.1772 71.2122Z" fill="url(#paint4_linear_425_22427)"/>
</g>
<path d="M56.1357 43.4035C56.1349 44.8944 55.7439 46.359 55.0014 47.6518C54.2589 48.9445 53.1909 50.0203 51.9036 50.772C50.6164 51.5237 49.1547 51.9252 47.6641 51.9365C46.1735 51.9478 44.706 51.5685 43.4075 50.8364C42.5345 51.4773 41.4965 51.8552 40.4158 51.9254C39.3352 51.9956 38.257 51.7552 37.3085 51.2325C36.1318 51.7015 34.8761 51.9406 33.6094 51.9371C28.2355 51.9371 23.8629 47.6968 23.8629 42.4834C23.8629 37.2701 28.2355 33.0298 33.6094 33.0298C34.6729 31.2535 36.2508 29.8422 38.1341 28.9827C40.0174 28.1232 42.1172 27.856 44.1557 28.2165C46.1942 28.577 48.0751 29.5482 49.5495 31.0016C51.0238 32.4549 52.0221 34.3219 52.412 36.3552C53.5634 37.1342 54.5053 38.1846 55.1547 39.4139C55.8041 40.6431 56.141 42.0133 56.1357 43.4035ZM43.3288 48.6478C43.5269 48.6483 43.7202 48.7086 43.8836 48.8207C44.6078 49.3404 45.4301 49.7075 46.3006 49.8997C47.171 50.0919 48.0714 50.1052 48.9471 49.9388C49.8228 49.7725 50.6556 49.4299 51.395 48.9319C52.1343 48.4339 52.7648 47.7908 53.2481 47.0417C53.7315 46.2926 54.0576 45.4532 54.2067 44.5742C54.3558 43.6953 54.3248 42.7952 54.1156 41.9286C53.9064 41.0619 53.5233 40.2469 52.9896 39.5328C52.4559 38.8188 51.7827 38.2206 51.0108 37.7747C50.8874 37.7 50.7821 37.5989 50.7024 37.4786C50.6228 37.3583 50.5708 37.2219 50.5502 37.0791C50.2985 35.3484 49.5039 33.7423 48.281 32.4922C47.0581 31.2421 45.4699 30.4126 43.7453 30.1231C42.0208 29.8337 40.2489 30.0992 38.6849 30.8816C37.1209 31.6639 35.8457 32.9226 35.0428 34.4763C34.956 34.6449 34.8218 34.7844 34.6568 34.8777C34.4917 34.971 34.303 35.014 34.1139 35.0015C33.9203 34.9899 33.7603 34.9848 33.6094 34.9848C29.3155 34.9848 25.8215 38.3399 25.8215 42.4796C25.8215 46.6192 29.3155 49.9757 33.6094 49.9757C34.7725 49.9791 35.9223 49.7281 36.9782 49.2401C37.1324 49.1684 37.3027 49.1383 37.4722 49.1525C37.6416 49.1668 37.8045 49.225 37.9446 49.3214C38.6522 49.8087 39.5071 50.0352 40.3632 49.9623C41.2192 49.8893 42.0235 49.5214 42.6385 48.9214C42.824 48.7434 43.0718 48.6452 43.3288 48.6478Z" fill="#2F80ED"/>
<path d="M34.8803 39.0212H33.425C33.3671 39.0212 33.3117 39.0442 33.2708 39.0851C33.2299 39.126 33.2069 39.1815 33.2069 39.2393V42.6602L35.0945 40.771V39.2393C35.0949 39.182 35.0725 39.1269 35.0324 39.0861C34.9923 39.0452 34.9376 39.0219 34.8803 39.0212Z" fill="#2F80ED"/>
<path d="M40.8426 37.425C40.621 37.2039 40.3208 37.0797 40.0078 37.0797C39.6948 37.0797 39.3946 37.2039 39.173 37.425L35.4674 41.1298L35.0984 41.4975L33.2108 43.3867L28.8782 47.711C30.0337 48.5565 31.3942 49.0777 32.8189 49.2206C34.2435 49.3636 35.6804 49.123 36.9809 48.5239C37.1353 48.4528 37.3056 48.4231 37.475 48.4375C37.6444 48.452 37.8071 48.5102 37.9473 48.6065C38.6549 49.0938 39.5098 49.3203 40.3659 49.2474C41.2219 49.1744 42.0261 48.8065 42.6412 48.2065C42.8244 48.0287 43.0697 47.9292 43.325 47.929C43.5232 47.9287 43.7168 47.9891 43.8798 48.102C44.9939 48.8701 46.3184 49.2748 47.6716 49.2605C49.0248 49.2462 50.3404 48.8136 51.438 48.0219L40.8426 37.425ZM39.92 46.3379C39.9197 46.3822 39.9019 46.4245 39.8705 46.4557C39.839 46.4869 39.7966 46.5044 39.7523 46.5044H38.3924C38.3483 46.5044 38.3059 46.4869 38.2747 46.4557C38.2435 46.4244 38.226 46.3821 38.226 46.3379V44.9778C38.226 44.9336 38.2435 44.8911 38.2746 44.8597C38.3058 44.8282 38.3481 44.8104 38.3924 44.8101H39.7523C39.7968 44.8101 39.8395 44.8277 39.8709 44.8592C39.9024 44.8907 39.92 44.9333 39.92 44.9778V46.3379ZM39.92 44.2733C39.92 44.3177 39.9024 44.3604 39.8709 44.3919C39.8395 44.4233 39.7968 44.441 39.7523 44.441H38.3924C38.3481 44.4407 38.3058 44.4228 38.2746 44.3914C38.2435 44.36 38.226 44.3175 38.226 44.2733V42.9131C38.226 42.8689 38.2435 42.8264 38.2746 42.795C38.3058 42.7636 38.3481 42.7457 38.3924 42.7454H39.7523C39.7968 42.7454 39.8395 42.7631 39.8709 42.7945C39.9024 42.826 39.92 42.8686 39.92 42.9131V44.2733ZM42.1005 46.3379C42.1002 46.3822 42.0824 46.4245 42.051 46.4557C42.0195 46.4869 41.9771 46.5044 41.9328 46.5044H40.5742C40.5299 46.5044 40.4875 46.4869 40.456 46.4557C40.4246 46.4245 40.4068 46.3822 40.4065 46.3379V44.9778C40.4065 44.9333 40.4241 44.8907 40.4556 44.8592C40.487 44.8277 40.5297 44.8101 40.5742 44.8101H41.9328C41.9773 44.8101 42.02 44.8277 42.0514 44.8592C42.0829 44.8907 42.1005 44.9333 42.1005 44.9778V46.3379ZM42.1005 44.2733C42.1005 44.3177 42.0829 44.3604 42.0514 44.3919C42.02 44.4233 41.9773 44.441 41.9328 44.441H40.5742C40.5297 44.441 40.487 44.4233 40.4556 44.3919C40.4241 44.3604 40.4065 44.3177 40.4065 44.2733V42.9131C40.4065 42.8686 40.4241 42.826 40.4556 42.7945C40.487 42.7631 40.5297 42.7454 40.5742 42.7454H41.9328C41.9773 42.7454 42.02 42.7631 42.0514 42.7945C42.0829 42.826 42.1005 42.8686 42.1005 42.9131V44.2733Z" fill="#2F80ED"/>
</g>
<defs>
<filter id="filter0_ii_425_22427" x="-12.0177" y="-11.999" width="104.016" height="99.9993" filterUnits="userSpaceOnUse" color-interpolation-filters="sRGB">
<feFlood flood-opacity="0" result="BackgroundImageFix"/>
<feBlend mode="normal" in="SourceGraphic" in2="BackgroundImageFix" result="shape"/>
<feColorMatrix in="SourceAlpha" type="matrix" values="0 0 0 0 0 0 0 0 0 0 0 0 0 0 0 0 0 0 127 0" result="hardAlpha"/>
<feOffset dx="12" dy="8"/>
<feGaussianBlur stdDeviation="8"/>
<feComposite in2="hardAlpha" operator="arithmetic" k2="-1" k3="1"/>
<feColorMatrix type="matrix" values="0 0 0 0 0.184314 0 0 0 0 0.501961 0 0 0 0 0.929412 0 0 0 0.17 0"/>
<feBlend mode="normal" in2="shape" result="effect1_innerShadow_425_22427"/>
<feColorMatrix in="SourceAlpha" type="matrix" values="0 0 0 0 0 0 0 0 0 0 0 0 0 0 0 0 0 0 127 0" result="hardAlpha"/>
<feOffset dx="-12" dy="-12"/>
<feGaussianBlur stdDeviation="8"/>
<feComposite in2="hardAlpha" operator="arithmetic" k2="-1" k3="1"/>
<feColorMatrix type="matrix" values="0 0 0 0 0.184314 0 0 0 0 0.501961 0 0 0 0 0.929412 0 0 0 0.2 0"/>
<feBlend mode="normal" in2="effect1_innerShadow_425_22427" result="effect2_innerShadow_425_22427"/>
</filter>
<linearGradient id="paint0_linear_425_22427" x1="47.0252" y1="0.000972748" x2="47.0252" y2="72.6592" gradientUnits="userSpaceOnUse">
<stop stop-color="#A1C6F7"/>
<stop offset="0.966346" stop-color="#438CEF"/>
</linearGradient>
<linearGradient id="paint1_linear_425_22427" x1="7.13664" y1="14.1376" x2="7.13664" y2="52.3571" gradientUnits="userSpaceOnUse">
<stop stop-color="#A1C6F7"/>
<stop offset="0.966346" stop-color="#438CEF"/>
</linearGradient>
<linearGradient id="paint2_linear_425_22427" x1="14.2713" y1="54.577" x2="14.2713" y2="74.5271" gradientUnits="userSpaceOnUse">
<stop stop-color="#A1C6F7"/>
<stop offset="0.966346" stop-color="#438CEF"/>
</linearGradient>
<linearGradient id="paint3_linear_425_22427" x1="34.3307" y1="71.8993" x2="34.3307" y2="80.0002" gradientUnits="userSpaceOnUse">
<stop stop-color="#A1C6F7"/>
<stop offset="0.966346" stop-color="#438CEF"/>
</linearGradient>
<linearGradient id="paint4_linear_425_22427" x1="51.0249" y1="71.035" x2="51.0249" y2="78.9527" gradientUnits="userSpaceOnUse">
<stop stop-color="#A1C6F7"/>
<stop offset="0.966346" stop-color="#438CEF"/>
</linearGradient>
<clipPath id="clip0_425_22427">
<rect width="80" height="80" fill="white"/>
</clipPath>
</defs>
</svg>
